<?xml version="1.0" standalone="no"?>
<!DOCTYPE svg PUBLIC "-//W3C//DTD SVG 20010904//EN"
 "http://www.w3.org/TR/2001/REC-SVG-20010904/DTD/svg10.dtd">
<svg version="1.0" xmlns="http://www.w3.org/2000/svg"
 width="70.000000pt" height="70.000000pt" viewBox="0 0 70.000000 70.000000"
 preserveAspectRatio="xMidYMid meet">
<metadata>
Created by potrace 1.14, written by Peter Selinger 2001-2017
</metadata>
<g transform="translate(0.000000,70.000000) scale(0.100000,-0.100000)"
fill="#000000" stroke="none">
<path d="M529 633 c-13 -16 -12 -17 4 -4 9 7 17 15 17 17 0 8 -8 3 -21 -13z"/>
<path d="M575 568 c7 -23 32 -48 47 -48 5 0 -3 16 -18 35 -31 41 -38 44 -29
13z"/>
<path d="M102 557 c-27 -29 -28 -41 -3 -28 10 6 21 20 24 31 7 25 5 25 -21 -3z"/>
<path d="M301 514 c-29 -38 -32 -48 -23 -67 9 -19 11 -19 11 -4 1 10 13 34 27
52 14 19 24 41 22 49 -2 9 -15 -2 -37 -30z"/>
<path d="M356 552 c-3 -4 9 -29 26 -55 l30 -47 -18 -50 c-23 -64 -14 -75 50
-59 36 9 49 9 61 -1 24 -20 7 -29 -78 -40 -55 -8 -99 -8 -154 0 -85 11 -102
20 -78 40 12 10 26 11 63 2 55 -12 68 -4 56 35 -7 26 -8 26 -11 6 -3 -13 -6
-23 -7 -23 -1 0 -24 7 -50 16 l-48 16 -37 -36 c-52 -51 -61 -47 -61 22 0 53
-2 60 -25 70 -34 16 -39 2 -33 -96 20 -324 441 -416 588 -128 31 62 35 77 34
147 0 43 -4 82 -7 86 -4 3 -18 0 -32 -7 -22 -12 -25 -20 -25 -72 0 -32 -4 -58
-10 -58 -5 0 -28 16 -50 36 l-40 36 -47 -16 c-25 -9 -49 -13 -52 -10 -3 3 3
27 12 54 l18 49 -35 46 c-19 25 -37 41 -40 37z m-266 -185 c0 -34 6 -48 25
-65 14 -12 25 -28 25 -35 0 -8 14 -33 31 -56 94 -131 299 -115 371 28 15 30
37 60 48 68 14 10 20 25 20 54 0 29 4 39 16 39 15 0 16 -9 10 -61 -7 -75 -26
-115 -77 -169 -140 -147 -380 -105 -473 82 -25 50 -36 135 -19 151 15 16 23 4
23 -36z m189 -88 c77 -9 112 -9 179 3 45 8 84 13 86 11 2 -2 2 -13 -1 -23 -10
-38 -184 -62 -295 -41 -76 15 -83 18 -93 50 -6 20 -5 23 10 17 10 -4 61 -11
114 -17z"/>
</g>
</svg>
